<svg width="46" height="12" viewBox="0 0 46 12" fill="none" xmlns="http://www.w3.org/2000/svg">
<path d="M7.5 4.46509L7.42969 4.99829C7.35156 5.52173 7.21094 6.03149 7.00781 6.52759C6.80859 7.02368 6.54492 7.46899 6.2168 7.86353C5.88867 8.25806 5.49609 8.5686 5.03906 8.79517C4.58203 9.02173 4.05859 9.12915 3.46875 9.11743C2.90625 9.10571 2.43555 8.97876 2.05664 8.73657C1.68164 8.49048 1.38867 8.16821 1.17773 7.76978C0.970703 7.37134 0.833984 6.93188 0.767578 6.45142C0.705078 5.97095 0.705078 5.48853 0.767578 5.00415L0.84375 4.47095C0.917969 3.94751 1.05664 3.4397 1.25977 2.94751C1.4668 2.45142 1.73438 2.0061 2.0625 1.61157C2.39453 1.21704 2.78906 0.906494 3.24609 0.679932C3.70312 0.449463 4.22266 0.340088 4.80469 0.351807C5.375 0.363525 5.84766 0.490479 6.22266 0.732666C6.60156 0.974854 6.89453 1.29517 7.10156 1.6936C7.30859 2.09204 7.44141 2.53149 7.5 3.01196C7.5625 3.49243 7.5625 3.97681 7.5 4.46509ZM6.33398 5.00415L6.41016 4.44751C6.45312 4.11548 6.46875 3.76978 6.45703 3.4104C6.44531 3.05103 6.38477 2.71509 6.27539 2.40259C6.16992 2.08618 5.99609 1.82837 5.75391 1.62915C5.51172 1.42993 5.17773 1.32251 4.75195 1.30688C4.31836 1.29517 3.9375 1.3811 3.60938 1.5647C3.28125 1.74438 3.00195 1.99048 2.77148 2.30298C2.54492 2.61157 2.36328 2.95337 2.22656 3.32837C2.08984 3.70337 1.99414 4.07837 1.93945 4.45337L1.86328 5.01001C1.82031 5.33423 1.80469 5.67798 1.81641 6.04126C1.83203 6.40063 1.89453 6.73853 2.00391 7.05493C2.11328 7.37134 2.28906 7.63306 2.53125 7.84009C2.77344 8.04321 3.10352 8.15259 3.52148 8.16821C3.9668 8.17993 4.35352 8.09595 4.68164 7.91626C5.00977 7.73267 5.28516 7.48657 5.50781 7.17798C5.73438 6.86938 5.91406 6.52563 6.04688 6.14673C6.18359 5.76782 6.2793 5.38696 6.33398 5.00415ZM10.1426 3.9436L8.8418 11.4377H7.77539L9.29883 2.6604H10.2715L10.1426 3.9436ZM13.957 5.74243L13.9453 5.86548C13.8945 6.24829 13.8008 6.63501 13.6641 7.02563C13.5312 7.41235 13.3496 7.76587 13.1191 8.08618C12.8887 8.40649 12.6055 8.66235 12.2695 8.85376C11.9375 9.04517 11.5469 9.13501 11.0977 9.12329C10.7031 9.11548 10.3652 9.02954 10.084 8.86548C9.80273 8.69751 9.57617 8.47681 9.4043 8.20337C9.23242 7.92603 9.10938 7.61743 9.03516 7.27759C8.96484 6.93384 8.94141 6.58228 8.96484 6.2229L9.04688 5.57251C9.11328 5.1897 9.22461 4.81665 9.38086 4.45337C9.54102 4.08618 9.74414 3.7561 9.99023 3.46313C10.2363 3.17017 10.5273 2.94165 10.8633 2.77759C11.2031 2.60962 11.5879 2.53149 12.0176 2.54321C12.4512 2.55493 12.8027 2.6604 13.0723 2.85962C13.3457 3.05493 13.5527 3.31079 13.6934 3.6272C13.8379 3.9397 13.9277 4.28149 13.9629 4.65259C13.998 5.01978 13.9961 5.38306 13.957 5.74243ZM12.8789 5.85962L12.8965 5.73071C12.9238 5.49634 12.9297 5.24829 12.9141 4.98657C12.9023 4.72485 12.8535 4.48071 12.7676 4.25415C12.6855 4.02368 12.5547 3.83423 12.375 3.68579C12.1992 3.53735 11.959 3.45923 11.6543 3.45142C11.4121 3.4436 11.1816 3.48462 10.9629 3.57446C10.748 3.6604 10.5527 3.78345 10.377 3.9436C10.2012 4.09985 10.0508 4.28149 9.92578 4.48853C9.80078 4.69165 9.70898 4.90649 9.65039 5.13306L9.39844 6.66235C9.39453 6.9397 9.45508 7.19751 9.58008 7.43579C9.70508 7.67017 9.875 7.85962 10.0898 8.00415C10.3086 8.14868 10.5566 8.22485 10.834 8.23267C11.1582 8.24048 11.4395 8.17603 11.6777 8.03931C11.9199 7.89868 12.123 7.71118 12.2871 7.47681C12.4512 7.23853 12.582 6.97876 12.6797 6.69751C12.7773 6.41235 12.8438 6.13306 12.8789 5.85962ZM17.3848 8.23267C17.6426 8.23657 17.8828 8.18774 18.1055 8.08618C18.3281 7.98462 18.5176 7.84009 18.6738 7.65259C18.8301 7.46509 18.9414 7.24829 19.0078 7.0022L20.0156 6.99634C19.9531 7.42212 19.7871 7.79517 19.5176 8.11548C19.252 8.43579 18.9258 8.68579 18.5391 8.86548C18.1562 9.04126 17.7559 9.12524 17.3379 9.11743C16.8926 9.10962 16.5137 9.01782 16.2012 8.84204C15.8926 8.66235 15.6445 8.42407 15.457 8.1272C15.2695 7.83032 15.1406 7.49634 15.0703 7.12524C15 6.75024 14.9844 6.36548 15.0234 5.97095L15.0469 5.71899C15.0938 5.29321 15.1973 4.88892 15.3574 4.5061C15.5176 4.11938 15.7305 3.77759 15.9961 3.48071C16.2656 3.17993 16.584 2.94556 16.9512 2.77759C17.3184 2.60962 17.7305 2.53149 18.1875 2.54321C18.6328 2.55103 19.0195 2.65649 19.3477 2.85962C19.6758 3.05884 19.9297 3.33032 20.1094 3.67407C20.2891 4.01782 20.3789 4.40845 20.3789 4.84595L19.3828 4.84009C19.3789 4.59009 19.3301 4.35962 19.2363 4.14868C19.1426 3.93774 19.0039 3.76782 18.8203 3.63892C18.6367 3.51001 18.4102 3.4397 18.1406 3.42798C17.8164 3.42017 17.5332 3.48071 17.291 3.60962C17.0527 3.73853 16.8496 3.91626 16.6816 4.14282C16.5176 4.36548 16.3867 4.61353 16.2891 4.88696C16.1953 5.1604 16.1309 5.43774 16.0957 5.71899L16.0664 5.96509C16.043 6.21509 16.0391 6.47095 16.0547 6.73267C16.0742 6.99438 16.1289 7.23853 16.2188 7.46509C16.3086 7.68774 16.4473 7.86938 16.6348 8.01001C16.8223 8.15063 17.0723 8.22485 17.3848 8.23267ZM23.0859 2.6604L21.9844 9.00024H20.9238L22.0254 2.6604H23.0859ZM22.2363 0.996338C22.2363 0.812744 22.293 0.6604 22.4062 0.539307C22.5234 0.414307 22.6738 0.349854 22.8574 0.345947C23.041 0.342041 23.1914 0.398682 23.3086 0.515869C23.4297 0.633057 23.4883 0.781494 23.4844 0.961182C23.4844 1.14087 23.4238 1.29126 23.3027 1.41235C23.1855 1.52954 23.0371 1.59009 22.8574 1.59399C22.6777 1.5979 22.5293 1.54517 22.4121 1.43579C22.2949 1.32251 22.2363 1.17603 22.2363 0.996338ZM23.9473 5.93579L23.9648 5.80103C24.0117 5.37524 24.1172 4.96509 24.2812 4.57056C24.4492 4.17603 24.6699 3.82446 24.9434 3.51587C25.2168 3.20728 25.541 2.96509 25.916 2.78931C26.291 2.61353 26.709 2.53149 27.1699 2.54321C27.6152 2.55103 27.9961 2.64673 28.3125 2.83032C28.6328 3.01392 28.8906 3.25806 29.0859 3.56274C29.2852 3.86353 29.4238 4.20337 29.502 4.58228C29.5801 4.96118 29.5996 5.35181 29.5605 5.75415L29.5488 5.88892C29.498 6.3147 29.3887 6.7229 29.2207 7.11353C29.0527 7.50415 28.8301 7.85181 28.5527 8.15649C28.2793 8.46118 27.9551 8.70142 27.5801 8.8772C27.2051 9.04907 26.7891 9.12915 26.332 9.11743C25.8906 9.10962 25.5098 9.01587 25.1895 8.83618C24.873 8.65259 24.6172 8.4104 24.4219 8.10962C24.2266 7.80884 24.0898 7.47095 24.0117 7.09595C23.9336 6.72095 23.9121 6.33423 23.9473 5.93579ZM25.0195 5.80103L25.0078 5.94165C24.9805 6.18774 24.9785 6.4436 25.002 6.70923C25.0293 6.97485 25.0918 7.22095 25.1895 7.44751C25.291 7.67407 25.4375 7.85962 25.6289 8.00415C25.8203 8.14868 26.0684 8.22485 26.373 8.23267C26.6973 8.24048 26.9824 8.17798 27.2285 8.04517C27.4746 7.90845 27.6836 7.72485 27.8555 7.49438C28.0312 7.26392 28.1699 7.00806 28.2715 6.72681C28.377 6.44556 28.4473 6.16626 28.4824 5.88892L28.4941 5.75415C28.5215 5.50806 28.5215 5.2522 28.4941 4.98657C28.4707 4.71704 28.4082 4.46704 28.3066 4.23657C28.209 4.0022 28.0645 3.81274 27.873 3.66821C27.6816 3.51978 27.4336 3.44165 27.1289 3.43384C26.8047 3.42212 26.5176 3.48657 26.2676 3.6272C26.0215 3.76392 25.8125 3.94946 25.6406 4.18384C25.4688 4.41821 25.3301 4.67798 25.2246 4.96313C25.123 5.24438 25.0547 5.52368 25.0195 5.80103ZM32.2324 4.07837L31.377 9.00024H30.3164L31.418 2.6604H32.4199L32.2324 4.07837ZM31.7402 5.59009L31.3066 5.57837C31.3613 5.19946 31.4609 4.82837 31.6055 4.46509C31.7539 4.0979 31.9473 3.76782 32.1855 3.47485C32.4277 3.18188 32.7148 2.95142 33.0469 2.78345C33.3828 2.61157 33.7656 2.53149 34.1953 2.54321C34.5352 2.55103 34.8184 2.61743 35.0449 2.74243C35.2754 2.86353 35.4551 3.02954 35.584 3.24048C35.7129 3.45142 35.7988 3.69556 35.8418 3.9729C35.8848 4.24634 35.8887 4.53735 35.8535 4.84595L35.1621 9.00024H34.0957L34.7988 4.82837C34.8262 4.57446 34.8164 4.34595 34.7695 4.14282C34.7266 3.93579 34.6289 3.77173 34.4766 3.65063C34.3281 3.52563 34.1133 3.45923 33.832 3.45142C33.5352 3.4436 33.2676 3.50024 33.0293 3.62134C32.791 3.74243 32.582 3.90845 32.4023 4.11938C32.2266 4.32642 32.082 4.55884 31.9688 4.81665C31.8594 5.07056 31.7832 5.32837 31.7402 5.59009ZM40.582 7.91626L41.1094 4.64087C41.1367 4.39868 41.1133 4.18579 41.0391 4.0022C40.9688 3.8186 40.8496 3.67603 40.6816 3.57446C40.5176 3.4729 40.3105 3.41821 40.0605 3.4104C39.8418 3.40649 39.627 3.44165 39.416 3.51587C39.209 3.59009 39.0293 3.70142 38.877 3.84985C38.7246 3.99829 38.625 4.18579 38.5781 4.41235L37.5234 4.41821C37.5508 4.10181 37.6504 3.82642 37.8223 3.59204C37.9941 3.35376 38.209 3.15649 38.4668 3.00024C38.7246 2.84009 39.002 2.7229 39.2988 2.64868C39.5957 2.57056 39.8848 2.53345 40.166 2.53735C40.5918 2.54517 40.9609 2.63696 41.2734 2.81274C41.5898 2.98462 41.8281 3.22681 41.9883 3.53931C42.1484 3.85181 42.207 4.22681 42.1641 4.66431L41.6777 7.61743C41.6426 7.83228 41.6211 8.04907 41.6133 8.26782C41.6094 8.48267 41.6348 8.6936 41.6895 8.90063L41.6777 9.00024L40.6055 9.0061C40.5625 8.82642 40.541 8.64478 40.541 8.46118C40.5449 8.27759 40.5586 8.09595 40.582 7.91626ZM41.2324 5.15649L41.1094 5.91821L40.1074 5.91235C39.8965 5.91235 39.6738 5.92798 39.4395 5.95923C39.2051 5.99048 38.9824 6.04907 38.7715 6.13501C38.5605 6.22095 38.3828 6.34595 38.2383 6.51001C38.0938 6.67017 38.0059 6.87915 37.9746 7.13696C37.9512 7.3479 37.9766 7.53149 38.0508 7.68774C38.1289 7.84009 38.2461 7.95923 38.4023 8.04517C38.5586 8.1311 38.7402 8.17603 38.9473 8.17993C39.2168 8.18384 39.4824 8.1311 39.7441 8.02173C40.0059 7.91235 40.2344 7.7561 40.4297 7.55298C40.625 7.34985 40.7598 7.11548 40.834 6.84985L41.2207 7.37134C41.1465 7.62915 41.0254 7.86743 40.8574 8.08618C40.6895 8.30103 40.4902 8.48657 40.2598 8.64282C40.0332 8.79907 39.7891 8.92017 39.5273 9.0061C39.2656 9.09204 39.0039 9.13306 38.7422 9.12915C38.3867 9.12134 38.0645 9.04126 37.7754 8.88892C37.4902 8.73657 37.2637 8.52368 37.0957 8.25024C36.9316 7.9729 36.8613 7.65063 36.8848 7.28345C36.9082 6.8811 37.0137 6.54321 37.2012 6.26978C37.3887 5.99634 37.6289 5.77759 37.9219 5.61353C38.2188 5.44946 38.543 5.33228 38.8945 5.26196C39.2461 5.18774 39.5938 5.15063 39.9375 5.15063L41.2324 5.15649ZM45.8027 0.000244141L44.2383 9.00024H43.1777L44.7363 0.000244141H45.8027Z" fill="#8D8686"/>
</svg>
